<svg width="98" height="77" xmlns="http://www.w3.org/2000/svg" xmlns:xlink="http://www.w3.org/1999/xlink" xml:space="preserve" overflow="hidden"><defs><clipPath id="clip0"><rect x="0" y="0" width="98" height="77"/></clipPath></defs><g clip-path="url(#clip0)"><path d="M82.3812 22.4583 68.8185 22.4583 74.1809 17.0959C74.5828 16.7099 74.6172 16.0786 74.2595 15.6514 73.8828 15.232 73.2373 15.1974 72.8179 15.574 72.8044 15.5862 72.7911 15.5987 72.7783 15.6116L65.9315 22.4583 15.5167 22.4583C15.2053 22.4752 14.9666 22.7413 14.9835 23.0526 14.9899 23.1712 15.0336 23.2847 15.1083 23.3771L45.9375 55.125 45.9375 74.9026C45.8994 76.4194 44.7863 77.6938 43.2884 77.9355 39.4042 78.449 36.75 79.4698 36.75 80.6458 36.75 82.3374 42.2349 83.7083 49 83.7083 55.7651 83.7083 61.25 82.3374 61.25 80.6458 61.25 79.4698 58.5958 78.449 54.7116 77.9355 53.2137 77.6938 52.1006 76.4194 52.0625 74.9026L52.0625 55.125 82.7896 23.3771C82.9931 23.1514 82.9752 22.8035 82.7495 22.6 82.6485 22.5089 82.5173 22.4584 82.3812 22.4583ZM63.8899 24.5 57.7649 30.625 24.9961 30.625 19.0651 24.5174C19.0559 24.5082 19.0651 24.5 19.0732 24.5ZM50.0208 74.9026C50.0361 77.4669 51.9399 79.6271 54.4819 79.9649 55.6117 80.1025 56.7291 80.3278 57.8241 80.6387 57.8294 80.6404 57.8324 80.6462 57.8306 80.6516 57.8296 80.6546 57.8271 80.6571 57.8241 80.6581 54.942 81.3924 51.9735 81.7316 49 81.6667 46.0265 81.7316 43.058 81.3924 40.1759 80.6581 40.1705 80.6563 40.1676 80.6505 40.1694 80.6452 40.1704 80.6422 40.1729 80.6397 40.1759 80.6387 41.2709 80.3278 42.3883 80.1025 43.5181 79.9649 46.0601 79.6271 47.9638 77.4669 47.9792 74.9026L47.9792 54.2971 47.4024 53.703 26.9745 32.6667 55.7232 32.6667 51.8104 36.5795C50.6306 35.7929 49.1762 35.5339 47.7975 35.8649 45.9753 36.3804 44.5511 37.8045 44.0357 39.6267 43.7046 41.0054 43.9636 42.4598 44.7503 43.6396L43.219 45.1709C42.8213 45.5509 42.7818 46.1726 43.1282 46.6 43.4953 47.028 44.1397 47.0772 44.5676 46.7101 44.5873 46.6931 44.6063 46.6756 44.6247 46.6572L46.1968 45.0851C47.3766 45.8718 48.831 46.1307 50.2097 45.7997 52.0319 45.2843 53.456 43.8601 53.9715 42.0379 54.3025 40.6592 54.0435 39.2048 53.2569 38.025L58.6101 32.6667 70.9622 32.6667 50.5956 53.705 50.0208 54.2991 50.0208 74.9026ZM45.9947 41.4326C45.6674 39.7691 46.7505 38.1553 48.4138 37.828 48.8052 37.751 49.2078 37.751 49.5992 37.828 50.7845 38.1233 51.71 39.0488 52.0053 40.2341 52.3326 41.8976 51.2495 43.5114 49.5862 43.8387 49.1948 43.9156 48.7922 43.9156 48.4008 43.8387 47.2155 43.5433 46.29 42.6179 45.9947 41.4326ZM72.9334 30.625 60.6518 30.625 66.7768 24.5 78.8369 24.5C78.8502 24.5 78.8543 24.5082 78.8451 24.5174Z" fill="#000000" fill-rule="nonzero" fill-opacity="1" transform="matrix(1 0 0 1.00451 0 -9.30863)"/></g></svg>