<svg width="86" height="77" xmlns="http://www.w3.org/2000/svg" xmlns:xlink="http://www.w3.org/1999/xlink" xml:space="preserve" overflow="hidden"><defs><clipPath id="clip0"><rect x="0" y="0" width="86" height="77"/></clipPath></defs><g clip-path="url(#clip0)"><path d="M39.1538 46.889C35.5311 47.8653 32.9568 51.0737 32.7888 54.8219 32.7888 63.7891 46.5005 74.3809 47.0807 74.828L47.6838 75.29 48.2879 74.828C48.8722 74.3809 62.5799 63.7901 62.5799 54.8219 62.4135 51.0746 59.8418 47.8657 56.2208 46.887 54.6311 46.5094 50.8385 46.262 47.6868 51.1734 44.5351 46.266 40.7376 46.5134 39.1538 46.889ZM55.7578 48.8195C58.4882 49.579 60.4321 51.9924 60.5927 54.8219 60.5927 61.8267 50.3109 70.633 47.6838 72.7683 45.0578 70.633 34.776 61.8267 34.776 54.8219 34.9378 51.9926 36.8831 49.5803 39.6138 48.8225 39.9851 48.7333 40.3656 48.6876 40.7475 48.6864 43.0517 48.6864 45.169 50.4023 46.7976 53.6305L47.6759 55.3733C47.6775 55.378 47.6826 55.3805 47.6873 55.3788 47.6899 55.3779 47.6919 55.3759 47.6928 55.3733L48.5711 53.6305C50.4649 49.8787 53.0135 48.1687 55.7578 48.8195Z" fill="#000000" fill-rule="nonzero" fill-opacity="1" transform="matrix(1.00468 0 0 1 -4.32779 -10.4609)"/><path d="M17.8848 51.4327 17.8848 83.4385 77.5008 83.4624 77.5008 51.391 82.438 56.0609 88.8606 49.6392 47.6928 10.5322 6.52497 49.6383 12.9724 56.0847ZM75.5136 81.4752 19.872 81.4523 19.872 49.5508 47.6928 23.2045 75.5136 49.5121ZM13.0092 53.3126 9.37263 49.68 47.6928 13.2705 86.0129 49.68 82.3992 53.2887 47.6928 20.4682Z" fill="#000000" fill-rule="nonzero" fill-opacity="1" transform="matrix(1.00468 0 0 1 -4.32779 -10.4609)"/></g></svg>